<svg xmlns="http://www.w3.org/2000/svg" width="1400" height="960" viewBox="0 0 1400 960" font-family="DejaVu Sans, Arial, sans-serif">
<defs><marker id="fl" markerWidth="10" markerHeight="10" refX="8" refY="5" orient="auto"><path d="M0,1 L9,5 L0,9 z" fill="#0369a1"/></marker><linearGradient id="agua" x1="0" y1="0" x2="0" y2="1"><stop offset="0" stop-color="#bae6fd"/><stop offset="1" stop-color="#7dd3fc"/></linearGradient></defs>
<rect width="1400" height="960" fill="#fff"/>
<text x="30" y="40" font-size="24" font-weight="700" fill="#0f172a" text-anchor="start">Instalación de las sondas en la maqueta (vista lateral, sin escala)</text>
<text x="30" y="64" font-size="14" font-weight="400" fill="#475569" text-anchor="start">Todas las sondas cuelgan dentro del depósito; en la tubería solo va el caudalímetro. Detalle en docs/06-maqueta.md y docs/08-guia-instalacion.md.</text>
<line x1="20" y1="880" x2="1380" y2="880" stroke="#78716c" stroke-width="3"/>
<line x1="30" y1="880" x2="18" y2="892" stroke="#a8a29e"/>
<line x1="60" y1="880" x2="48" y2="892" stroke="#a8a29e"/>
<line x1="90" y1="880" x2="78" y2="892" stroke="#a8a29e"/>
<line x1="120" y1="880" x2="108" y2="892" stroke="#a8a29e"/>
<line x1="150" y1="880" x2="138" y2="892" stroke="#a8a29e"/>
<line x1="180" y1="880" x2="168" y2="892" stroke="#a8a29e"/>
<line x1="210" y1="880" x2="198" y2="892" stroke="#a8a29e"/>
<line x1="240" y1="880" x2="228" y2="892" stroke="#a8a29e"/>
<line x1="270" y1="880" x2="258" y2="892" stroke="#a8a29e"/>
<line x1="300" y1="880" x2="288" y2="892" stroke="#a8a29e"/>
<line x1="330" y1="880" x2="318" y2="892" stroke="#a8a29e"/>
<line x1="360" y1="880" x2="348" y2="892" stroke="#a8a29e"/>
<line x1="390" y1="880" x2="378" y2="892" stroke="#a8a29e"/>
<line x1="420" y1="880" x2="408" y2="892" stroke="#a8a29e"/>
<line x1="450" y1="880" x2="438" y2="892" stroke="#a8a29e"/>
<line x1="480" y1="880" x2="468" y2="892" stroke="#a8a29e"/>
<line x1="510" y1="880" x2="498" y2="892" stroke="#a8a29e"/>
<line x1="540" y1="880" x2="528" y2="892" stroke="#a8a29e"/>
<line x1="570" y1="880" x2="558" y2="892" stroke="#a8a29e"/>
<line x1="600" y1="880" x2="588" y2="892" stroke="#a8a29e"/>
<line x1="630" y1="880" x2="618" y2="892" stroke="#a8a29e"/>
<line x1="660" y1="880" x2="648" y2="892" stroke="#a8a29e"/>
<line x1="690" y1="880" x2="678" y2="892" stroke="#a8a29e"/>
<line x1="720" y1="880" x2="708" y2="892" stroke="#a8a29e"/>
<line x1="750" y1="880" x2="738" y2="892" stroke="#a8a29e"/>
<line x1="780" y1="880" x2="768" y2="892" stroke="#a8a29e"/>
<line x1="810" y1="880" x2="798" y2="892" stroke="#a8a29e"/>
<line x1="840" y1="880" x2="828" y2="892" stroke="#a8a29e"/>
<line x1="870" y1="880" x2="858" y2="892" stroke="#a8a29e"/>
<line x1="900" y1="880" x2="888" y2="892" stroke="#a8a29e"/>
<line x1="930" y1="880" x2="918" y2="892" stroke="#a8a29e"/>
<line x1="960" y1="880" x2="948" y2="892" stroke="#a8a29e"/>
<line x1="990" y1="880" x2="978" y2="892" stroke="#a8a29e"/>
<line x1="1020" y1="880" x2="1008" y2="892" stroke="#a8a29e"/>
<line x1="1050" y1="880" x2="1038" y2="892" stroke="#a8a29e"/>
<line x1="1080" y1="880" x2="1068" y2="892" stroke="#a8a29e"/>
<line x1="1110" y1="880" x2="1098" y2="892" stroke="#a8a29e"/>
<line x1="1140" y1="880" x2="1128" y2="892" stroke="#a8a29e"/>
<line x1="1170" y1="880" x2="1158" y2="892" stroke="#a8a29e"/>
<line x1="1200" y1="880" x2="1188" y2="892" stroke="#a8a29e"/>
<line x1="1230" y1="880" x2="1218" y2="892" stroke="#a8a29e"/>
<line x1="1260" y1="880" x2="1248" y2="892" stroke="#a8a29e"/>
<line x1="1290" y1="880" x2="1278" y2="892" stroke="#a8a29e"/>
<line x1="1320" y1="880" x2="1308" y2="892" stroke="#a8a29e"/>
<line x1="1350" y1="880" x2="1338" y2="892" stroke="#a8a29e"/>
<rect x="520" y="490" width="400" height="370" fill="url(#agua)"/>
<path d="M520,400 L520,860 L920,860 L920,400" fill="none" stroke="#1f2937" stroke-width="6"/>
<line x1="520" y1="490" x2="920" y2="490" stroke="#0284c7" stroke-width="2"/>
<text x="870" y="484" font-size="12" font-weight="400" fill="#0369a1" text-anchor="end">nivel normal</text>
<line x1="520" y1="700" x2="920" y2="700" stroke="#dc2626" stroke-width="1.5" stroke-dasharray="7,5"/>
<text x="528" y="718" font-size="12" font-weight="400" fill="#dc2626" text-anchor="start">nivel mínimo (cubre la punta del pH)</text>
<text x="720.0" y="905" font-size="13" font-weight="700" fill="#0f172a" text-anchor="middle">Depósito opaco y tapado (sin luz = sin algas), a la sombra</text>
<rect x="500" y="386" width="440" height="14" fill="#94a3b8" stroke="#475569"/>
<text x="946" y="398" font-size="12.5" font-weight="700" fill="#334155" text-anchor="start">tapa con soporte de sondas (listón o placa de PVC)</text>
<line x1="600" y1="386" x2="600" y2="310" stroke="#111" stroke-width="3"/>
<rect x="591" y="386" width="18" height="280" rx="6" fill="#e5e7eb" stroke="#111" stroke-width="2"/>
<rect x="594" y="650" width="12" height="26" rx="6" fill="#fde68a" stroke="#111"/>
<rect x="586" y="380" width="28" height="10" fill="#475569"/>
<line x1="600" y1="600" x2="980" y2="570" stroke="#64748b" stroke-width="1.5" stroke-dasharray="4,3"/>
<circle cx="600" cy="600" r="3.5" fill="#64748b"/>
<text x="986" y="574" font-size="13.5" font-weight="700" fill="#0f172a" text-anchor="start">Sonda de pH SEN0169-V2</text>
<text x="986" y="592" font-size="12.5" font-weight="400" fill="#334155" text-anchor="start">colgada a media altura</text>
<text x="986" y="609" font-size="12.5" font-weight="400" fill="#334155" text-anchor="start">siempre mojada</text>
<text x="986" y="626" font-size="12.5" font-weight="400" fill="#334155" text-anchor="start">BNC → caja del nodo</text>
<line x1="680" y1="386" x2="680" y2="310" stroke="#111" stroke-width="3"/>
<rect x="666" y="386" width="28" height="270" rx="8" fill="#cbd5e1" stroke="#111" stroke-width="2"/>
<rect x="666" y="630" width="28" height="26" fill="#1e293b"/>
<rect x="661" y="380" width="38" height="10" fill="#475569"/>
<line x1="680" y1="520" x2="980" y2="460" stroke="#64748b" stroke-width="1.5" stroke-dasharray="4,3"/>
<circle cx="680" cy="520" r="3.5" fill="#64748b"/>
<text x="986" y="464" font-size="13.5" font-weight="700" fill="#0f172a" text-anchor="start">Oxígeno + temperatura SEN0681</text>
<text x="986" y="482" font-size="12.5" font-weight="400" fill="#334155" text-anchor="start">membrana hacia abajo</text>
<text x="986" y="499" font-size="12.5" font-weight="400" fill="#334155" text-anchor="start">lejos del chorro de la bomba</text>
<text x="986" y="516" font-size="12.5" font-weight="400" fill="#334155" text-anchor="start">RS485 + 12 V (GX16 4 pines)</text>
<line x1="770" y1="386" x2="770" y2="820" stroke="#111" stroke-width="3"/>
<rect x="758" y="820" width="24" height="36" rx="5" fill="#9ca3af" stroke="#111" stroke-width="2"/>
<line x1="770" y1="838" x2="980" y2="780" stroke="#64748b" stroke-width="1.5" stroke-dasharray="4,3"/>
<circle cx="770" cy="838" r="3.5" fill="#64748b"/>
<text x="986" y="784" font-size="13.5" font-weight="700" fill="#0f172a" text-anchor="start">Nivel KIT0139 (4-20 mA)</text>
<text x="986" y="802" font-size="12.5" font-weight="400" fill="#334155" text-anchor="start">apoyado en el fondo</text>
<text x="986" y="819" font-size="12.5" font-weight="400" fill="#334155" text-anchor="start">el cable lleva el tubo de aire:</text>
<text x="986" y="836" font-size="12.5" font-weight="400" fill="#334155" text-anchor="start">no doblarlo ni aplastarlo</text>
<rect x="820" y="800" width="60" height="54" rx="8" fill="#1d4ed8" stroke="#111" stroke-width="2"/>
<rect x="798" y="818" width="22" height="30" fill="none" stroke="#111" stroke-width="2" stroke-dasharray="3,2"/>
<text x="850" y="833" font-size="11" font-weight="700" fill="#fff" text-anchor="middle">bomba</text>
<line x1="880" y1="830" x2="980" y2="852" stroke="#64748b" stroke-width="1.5" stroke-dasharray="4,3"/>
<circle cx="880" cy="830" r="3.5" fill="#64748b"/>
<text x="986" y="856" font-size="13.5" font-weight="700" fill="#0f172a" text-anchor="start">Bomba 12 V sumergida + rejilla</text>
<text x="986" y="874" font-size="12.5" font-weight="400" fill="#334155" text-anchor="start">en el fondo, lado opuesto a las sondas</text>
<polyline points="850,800 850,340 980,340 980,230 1060,230" fill="none" stroke="#0369a1" stroke-width="7" stroke-linejoin="round"/>
<rect x="1060" y="208" width="80" height="44" rx="6" fill="#fde68a" stroke="#111" stroke-width="2"/>
<text x="1100" y="234" font-size="12" font-weight="700" fill="#0f172a" text-anchor="middle">caudal.</text>
<polyline points="1140,230 1202,230" fill="none" stroke="#0369a1" stroke-width="7"/>
<circle cx="1220" cy="230" r="18" fill="#ef4444" stroke="#111" stroke-width="2"/>
<line x1="1220" y1="212" x2="1220" y2="190" stroke="#111" stroke-width="4"/>
<polyline points="1238,230 1280,230 1280,150 880,150 880,540" fill="none" stroke="#0369a1" stroke-width="7" stroke-linejoin="round"/>
<path d="M868,538 L880,560 L892,538 z" fill="#0369a1"/>
<text x="1100" y="190" font-size="13.5" font-weight="700" fill="#0f172a" text-anchor="middle">Caudalímetro YF-S201</text>
<text x="1130" y="280" font-size="12" font-weight="400" fill="#334155" text-anchor="middle">flecha del cuerpo en el sentido del agua</text>
<text x="1130" y="296" font-size="12" font-weight="400" fill="#334155" text-anchor="middle">(horizontal, antes de la válvula)</text>
<text x="1220" y="178" font-size="13" font-weight="700" fill="#0f172a" text-anchor="middle">válvula</text>
<text x="880" y="138" font-size="13" font-weight="700" fill="#0369a1" text-anchor="middle">retorno al mismo depósito (circuito cerrado)</text>
<text x="864" y="635" font-size="11.5" font-weight="400" fill="#0369a1" text-anchor="end">retorno bajo el agua</text>
<text x="864" y="650" font-size="11.5" font-weight="400" fill="#0369a1" text-anchor="end">(sin burbujas en las sondas)</text>
<rect x="923" y="685" width="30" height="30" rx="4" fill="#16a34a" stroke="#111" stroke-width="2"/>
<line x1="953" y1="700" x2="980" y2="700" stroke="#64748b" stroke-width="1.5" stroke-dasharray="4,3"/>
<circle cx="953" cy="700" r="3.5" fill="#64748b"/>
<text x="986" y="704" font-size="13.5" font-weight="700" fill="#0f172a" text-anchor="start">Presencia de agua SEN0204</text>
<text x="986" y="722" font-size="12.5" font-weight="400" fill="#334155" text-anchor="start">pegado por FUERA de la pared,</text>
<text x="986" y="739" font-size="12.5" font-weight="400" fill="#334155" text-anchor="start">a la altura del nivel mínimo</text>
<text x="986" y="756" font-size="12.5" font-weight="400" fill="#334155" text-anchor="start">(pared de hasta 13 mm)</text>
<rect x="236" y="640" width="14" height="240" fill="#78716c"/>
<rect x="60" y="470" width="200" height="170" rx="10" fill="#e2e8f0" stroke="#111" stroke-width="3"/>
<text x="160" y="500" font-size="14" font-weight="700" fill="#0f172a" text-anchor="middle">Caja 1 (IP66)</text>
<text x="160" y="525" font-size="12.5" font-weight="400" fill="#334155" text-anchor="middle">LILYGO + placa base</text>
<text x="160" y="543" font-size="12.5" font-weight="400" fill="#334155" text-anchor="middle">ADS1115, placa pH,</text>
<text x="160" y="561" font-size="12.5" font-weight="400" fill="#334155" text-anchor="middle">aislador, RS485</text>
<text x="160" y="579" font-size="12.5" font-weight="400" fill="#334155" text-anchor="middle">pantalla visible por</text>
<text x="160" y="597" font-size="12.5" font-weight="400" fill="#334155" text-anchor="middle">la tapa transparente</text>
<rect x="90" y="640" width="16" height="14" fill="#334155"/>
<rect x="130" y="640" width="16" height="14" fill="#334155"/>
<rect x="170" y="640" width="16" height="14" fill="#334155"/>
<rect x="210" y="640" width="16" height="14" fill="#334155"/>
<text x="152" y="675" font-size="12" font-weight="700" fill="#334155" text-anchor="middle">prensaestopas y GX16</text>
<text x="152" y="691" font-size="12" font-weight="700" fill="#b91c1c" text-anchor="middle">hacia ABAJO (goteo)</text>
<line x1="160" y1="470" x2="160" y2="420" stroke="#111" stroke-width="4"/>
<path d="M150,420 L160,395 L170,420 z" fill="#111"/>
<text x="178" y="418" font-size="12.5" font-weight="700" fill="#0f172a" text-anchor="start">antena 868 MHz vertical</text>
<path d="M220,654 C290,730 460,280 630,296" fill="none" stroke="#111" stroke-width="2.5"/>
<path d="M180,654 C300,810 440,240 680,310" fill="none" stroke="#111" stroke-width="2.5"/>
<text x="300" y="340" font-size="12" font-weight="400" fill="#334155" text-anchor="start">cables sujetos con bridas:</text>
<text x="300" y="356" font-size="12" font-weight="400" fill="#334155" text-anchor="start">que no tiren de la sonda</text>
<rect x="60" y="170" width="12" height="300" fill="#78716c"/>
<polygon points="30,290 250,170 262,190 42,310" fill="#1e3a8a" stroke="#111" stroke-width="2"/>
<text x="40" y="160" font-size="13.5" font-weight="700" fill="#0f172a" text-anchor="start">Panel 50 W, ~50° al sur</text>
<rect x="60" y="770" width="200" height="100" rx="8" fill="#fef9c3" stroke="#111" stroke-width="3"/>
<text x="160" y="798" font-size="13.5" font-weight="700" fill="#0f172a" text-anchor="middle">Caja 2 (a la sombra)</text>
<text x="160" y="820" font-size="12.5" font-weight="400" fill="#334155" text-anchor="middle">MPPT + LiFePO4 12,8 V</text>
<text x="160" y="838" font-size="12.5" font-weight="400" fill="#334155" text-anchor="middle">20 Ah + fusibles</text>
<text x="160" y="856" font-size="12.5" font-weight="400" fill="#334155" text-anchor="middle">12 V → caja 1</text>
</svg>